<svg id="Logo" xmlns="http://www.w3.org/2000/svg" width="134.549" height="31.899" viewBox="0 0 134.549 31.899">
  <path id="Tracé_12" data-name="Tracé 12" d="M13.015,224.07c-3.367,0-5.89,1.382-7.27,3.807h-.1l-.248-3.313H0v23.255H6.486V235.451c0-3.614,1.78-5.642,4.8-5.642,2.721,0,4.309,1.78,4.309,5v13.013h6.479V234.014C22.071,227.733,18.7,224.07,13.015,224.07Z" transform="translate(0 -216.655)" fill="#5e48ff"/>
  <path id="Tracé_13" data-name="Tracé 13" d="M1551.969,257.574l8.26-11.284h-7.47l-4.748,7.078-4.8-7.078h-7.815l.66.886.048.069,7.6,10.328-8.8,11.971h7.518l5.243-7.813,5.25,7.813h7.813Z" transform="translate(-1484.11 -238.14)" fill="#4333b4"/>
  <path id="Tracé_14" data-name="Tracé 14" d="M2349.5,231.835l-.248,3.017h-.1c-1.485-2.226-4.11-3.512-7.525-3.512-6.585,0-11.38,5.1-11.38,12.122s4.8,12.122,11.38,12.122c3.463,0,6.04-1.333,7.573-3.607h.1l.2,3.113h5.394V231.835Zm-6.784,18.011c-3.511,0-5.937-2.625-5.937-6.384s2.426-6.384,5.937-6.384c3.464,0,5.89,2.625,5.89,6.384s-2.426,6.384-5.888,6.384Z" transform="translate(-2253.142 -223.685)" fill="#4333b4"/>
  <path id="Tracé_15" data-name="Tracé 15" d="M3248.35,0V31.4h6.48V0Z" transform="translate(-3140.861)" fill="#4333b4"/>
  <path id="Tracé_16" data-name="Tracé 16" d="M807.553,241.283v-2.619a14,14,0,0,0-.179-2.254V236.4a9.839,9.839,0,0,0-5.655-7.677h-.008a11.309,11.309,0,0,0-1.512-.584,14.951,14.951,0,0,0-4.37-.612,13.4,13.4,0,0,0-4.075.612,11.275,11.275,0,0,0-2.261.976,10.916,10.916,0,0,0-2.989,2.46,12.26,12.26,0,0,0-2.8,8.074,11.392,11.392,0,0,0,3.257,8.212,13.043,13.043,0,0,0,6.481,3.466,17.869,17.869,0,0,0,4.068.447,20.77,20.77,0,0,0,4.329-.426,11.464,11.464,0,0,0,4.335-1.754v-6.231h-.248a11.489,11.489,0,0,1-8.115,2.818,11.027,11.027,0,0,1-2.873-.351c-.007,0-.014-.007-.021-.007s-.031-.011-.047-.015a5.78,5.78,0,0,1-2.021-.855c-.022-.013-.047-.024-.069-.038-.049-.033-.1-.07-.147-.106l-.078-.056-.023-.017c-.062-.048-.131-.1-.193-.145a5.235,5.235,0,0,1-1.725-2.2l-.006-.013c-.026-.062-.06-.118-.083-.181-.014-.033-.033-.069-.048-.1-.006-.016-.009-.033-.014-.049a7.28,7.28,0,0,1-.592-2.879c0-3.734,2.753-6.76,6.149-6.76s6.149,3.027,6.149,6.76a7.359,7.359,0,0,1-.309,2.109Z" transform="translate(-757.767 -220.001)" fill="#5e48ff"/>
  <circle id="Ellipse_4" data-name="Ellipse 4" cx="2.4" cy="2.4" r="2.4" transform="translate(35.97 16.891)" fill="#5e48ff"/>
  <path id="Tracé_17" data-name="Tracé 17" d="M1551.08,257.647l-7.455-11.037h-7.82l.695.941,6.515,8.837.117.165.99,1.34-.921,1.251-.117.158-7.773,10.562h7.518l4.542-6.769.428-.636v.005Z" transform="translate(-1484.506 -238.45)" fill="#5e48ff"/>
  <path id="Tracé_18" data-name="Tracé 18" d="M3563.857,264.349c-2.027,0-3.216-1.237-3.216-3.463v-9.057h6.681V246.34H3550.3v5.489h3.862v9.3c0,5.89,3.017,8.954,8.658,8.954a10.434,10.434,0,0,0,4.549-.791v-6.281h-.247A4.186,4.186,0,0,1,3563.857,264.349Z" transform="translate(-3432.82 -238.189)" fill="#4333b4"/>
</svg>
